<mxfile host="app.diagrams.net" modified="2021-12-06T10:19:49.757Z" agent="5.0 (Windows NT 10.0; Win64; x64) AppleWebKit/537.36 (KHTML, like Gecko) Chrome/96.0.4664.45 Safari/537.36" etag="9HoF1vYd_fXjL_JY9xVB" version="15.8.9" type="github">
  <diagram id="kgx4clCe2iQRf7dcnx9X" name="Page-1">
    <mxGraphModel dx="1038" dy="537" grid="1" gridSize="10" guides="1" tooltips="1" connect="1" arrows="1" fold="1" page="1" pageScale="1" pageWidth="827" pageHeight="1169" math="0" shadow="0">
      <root>
        <mxCell id="0" />
        <mxCell id="1" parent="0" />
        <mxCell id="B1zWNN1JKAn-6X6YhLuU-1" value="NodeMaestro" style="shape=umlLifeline;perimeter=lifelinePerimeter;whiteSpace=wrap;html=1;container=1;collapsible=0;recursiveResize=0;outlineConnect=0;" vertex="1" parent="1">
          <mxGeometry x="10" y="100" width="310" height="640" as="geometry" />
        </mxCell>
        <mxCell id="B1zWNN1JKAn-6X6YhLuU-2" value="" style="rounded=0;whiteSpace=wrap;html=1;" vertex="1" parent="B1zWNN1JKAn-6X6YhLuU-1">
          <mxGeometry x="136.25" y="60" width="37.5" height="570" as="geometry" />
        </mxCell>
        <mxCell id="B1zWNN1JKAn-6X6YhLuU-15" value="&lt;pre style=&quot;background-color: rgb(255 , 255 , 255) ; color: rgb(8 , 8 , 8) ; font-family: &amp;#34;droid sans mono dotted&amp;#34; , monospace ; font-size: 8px&quot;&gt;&lt;b&gt;checkIfNodeIsInfluenced&lt;span style=&quot;color: #004b9f ; font-style: italic&quot;&gt;(&lt;/span&gt;msg&lt;span style=&quot;color: #004b9f ; font-style: italic&quot;&gt;)&lt;/span&gt;;&lt;/b&gt;&lt;/pre&gt;" style="text;whiteSpace=wrap;html=1;" vertex="1" parent="B1zWNN1JKAn-6X6YhLuU-1">
          <mxGeometry y="200" width="90" height="40" as="geometry" />
        </mxCell>
        <mxCell id="B1zWNN1JKAn-6X6YhLuU-26" value="" style="edgeStyle=orthogonalEdgeStyle;html=1;verticalAlign=bottom;endArrow=open;endSize=8;strokeColor=#000000;rounded=0;entryX=0.975;entryY=0.121;entryDx=0;entryDy=0;entryPerimeter=0;" edge="1" parent="B1zWNN1JKAn-6X6YhLuU-1">
          <mxGeometry relative="1" as="geometry">
            <mxPoint x="173.7525" y="540" as="targetPoint" />
            <mxPoint x="590.94" y="540.03" as="sourcePoint" />
            <Array as="points" />
          </mxGeometry>
        </mxCell>
        <mxCell id="B1zWNN1JKAn-6X6YhLuU-4" value="&amp;nbsp;NodeActor" style="shape=umlLifeline;perimeter=lifelinePerimeter;whiteSpace=wrap;html=1;container=1;collapsible=0;recursiveResize=0;outlineConnect=0;" vertex="1" parent="1">
          <mxGeometry x="460" y="100" width="326.40999999999997" height="630" as="geometry" />
        </mxCell>
        <mxCell id="B1zWNN1JKAn-6X6YhLuU-5" value="" style="rounded=0;whiteSpace=wrap;html=1;" vertex="1" parent="B1zWNN1JKAn-6X6YhLuU-4">
          <mxGeometry x="144.98" y="65" width="36.45" height="565" as="geometry" />
        </mxCell>
        <mxCell id="B1zWNN1JKAn-6X6YhLuU-20" value="&lt;pre style=&quot;background-color: rgb(255 , 255 , 255) ; color: rgb(8 , 8 , 8) ; font-family: &amp;#34;droid sans mono dotted&amp;#34; , monospace ; font-size: 10px&quot;&gt;adjustWeights()&lt;/pre&gt;" style="text;whiteSpace=wrap;html=1;" vertex="1" parent="B1zWNN1JKAn-6X6YhLuU-4">
          <mxGeometry x="181.42999999999998" y="450" width="170" height="50" as="geometry" />
        </mxCell>
        <mxCell id="B1zWNN1JKAn-6X6YhLuU-25" value="" style="edgeStyle=orthogonalEdgeStyle;html=1;verticalAlign=bottom;endArrow=open;endSize=8;strokeColor=#000000;rounded=0;entryX=-0.059;entryY=0.37;entryDx=0;entryDy=0;entryPerimeter=0;exitX=0.9;exitY=0.376;exitDx=0;exitDy=0;exitPerimeter=0;" edge="1" parent="B1zWNN1JKAn-6X6YhLuU-4">
          <mxGeometry relative="1" as="geometry">
            <mxPoint x="144.97944999999993" y="409.99999999999994" as="targetPoint" />
            <mxPoint x="-277.85" y="410.2699999999999" as="sourcePoint" />
            <Array as="points">
              <mxPoint x="145" y="410" />
            </Array>
          </mxGeometry>
        </mxCell>
        <mxCell id="B1zWNN1JKAn-6X6YhLuU-8" value="" style="edgeStyle=orthogonalEdgeStyle;html=1;verticalAlign=bottom;endArrow=open;endSize=8;strokeColor=#000000;rounded=0;entryX=-0.059;entryY=0.37;entryDx=0;entryDy=0;entryPerimeter=0;exitX=0.9;exitY=0.376;exitDx=0;exitDy=0;exitPerimeter=0;" edge="1" parent="1" source="B1zWNN1JKAn-6X6YhLuU-2" target="B1zWNN1JKAn-6X6YhLuU-5">
          <mxGeometry relative="1" as="geometry">
            <mxPoint x="570" y="310" as="targetPoint" />
            <mxPoint x="222" y="370" as="sourcePoint" />
            <Array as="points" />
          </mxGeometry>
        </mxCell>
        <mxCell id="B1zWNN1JKAn-6X6YhLuU-9" style="edgeStyle=orthogonalEdgeStyle;rounded=0;orthogonalLoop=1;jettySize=auto;html=1;exitX=0.5;exitY=1;exitDx=0;exitDy=0;fontSize=10;" edge="1" parent="1">
          <mxGeometry relative="1" as="geometry">
            <mxPoint x="385" y="585" as="sourcePoint" />
            <mxPoint x="385" y="585" as="targetPoint" />
          </mxGeometry>
        </mxCell>
        <mxCell id="B1zWNN1JKAn-6X6YhLuU-13" value="" style="edgeStyle=orthogonalEdgeStyle;html=1;verticalAlign=bottom;endArrow=open;endSize=8;strokeColor=#000000;rounded=0;entryX=0.975;entryY=0.121;entryDx=0;entryDy=0;entryPerimeter=0;" edge="1" parent="1" target="B1zWNN1JKAn-6X6YhLuU-2">
          <mxGeometry relative="1" as="geometry">
            <mxPoint x="220" y="230" as="targetPoint" />
            <mxPoint x="600" y="229" as="sourcePoint" />
            <Array as="points" />
          </mxGeometry>
        </mxCell>
        <mxCell id="B1zWNN1JKAn-6X6YhLuU-18" value="&lt;pre style=&quot;color: rgb(0 , 0 , 0) ; font-size: 12px ; font-style: normal ; font-weight: 400 ; letter-spacing: normal ; text-align: center ; text-indent: 0px ; text-transform: none ; word-spacing: 0px ; background-color: rgb(255 , 255 , 255)&quot;&gt;&lt;font color=&quot;#080808&quot; face=&quot;jetbrains mono, monospace&quot;&gt;bmu.tell(new NodeActor.AdjustWeights(&lt;br&gt;tempLearningRate, particleProperties, &lt;br&gt;currentIteration, theta, inputVector))&lt;/font&gt;&lt;/pre&gt;" style="text;whiteSpace=wrap;html=1;fontSize=10;" vertex="1" parent="1">
          <mxGeometry x="260" y="410" width="280" height="80" as="geometry" />
        </mxCell>
        <mxCell id="B1zWNN1JKAn-6X6YhLuU-14" value="&lt;pre style=&quot;background-color: #ffffff ; color: #080808 ; font-family: &amp;#34;jetbrains mono&amp;#34; , monospace ; font-size: 9 8pt&quot;&gt;tell(&lt;span style=&quot;white-space: normal&quot;&gt;new&amp;nbsp;&amp;nbsp;&lt;/span&gt;&lt;span style=&quot;white-space: normal ; font-family: &amp;#34;droid sans mono dotted&amp;#34; , monospace ; color: rgb(0 , 0 , 0)&quot;&gt;NodeMaestro&lt;/span&gt;&lt;span style=&quot;white-space: normal ; font-family: &amp;#34;droid sans mono dotted&amp;#34; , monospace&quot;&gt;.ReceiveAllDistance&lt;/span&gt;&lt;span style=&quot;white-space: normal ; font-family: &amp;#34;droid sans mono dotted&amp;#34; , monospace ; color: rgb(0 , 75 , 159) ; font-style: italic&quot;&gt;(&lt;/span&gt;&lt;/pre&gt;&lt;pre style=&quot;background-color: #ffffff ; color: #080808 ; font-family: &amp;#34;jetbrains mono&amp;#34; , monospace ; font-size: 9 8pt&quot;&gt;&lt;span style=&quot;white-space: normal ; font-family: &amp;#34;droid sans mono dotted&amp;#34; , monospace&quot;&gt;euclideanDistance&lt;/span&gt;&lt;span style=&quot;white-space: normal&quot;&gt;)&lt;/span&gt;&lt;/pre&gt;" style="text;html=1;strokeColor=none;fillColor=none;align=center;verticalAlign=middle;whiteSpace=wrap;rounded=0;" vertex="1" parent="1">
          <mxGeometry x="280" y="190" width="260" height="30" as="geometry" />
        </mxCell>
        <mxCell id="B1zWNN1JKAn-6X6YhLuU-17" value="&lt;pre style=&quot;background-color: rgb(255 , 255 , 255)&quot;&gt;&lt;font color=&quot;#080808&quot; face=&quot;jetbrains mono, monospace&quot;&gt;bmu.tell(new NodeActor.AdjustWeights(&lt;br/&gt;tempLearningRate, particleProperties, &lt;br/&gt;currentIteration, theta, inputVector))&lt;br&gt;&lt;/font&gt;&lt;/pre&gt;" style="text;html=1;strokeColor=none;fillColor=none;align=center;verticalAlign=middle;whiteSpace=wrap;rounded=0;" vertex="1" parent="1">
          <mxGeometry x="260" y="320" width="260" height="30" as="geometry" />
        </mxCell>
        <mxCell id="B1zWNN1JKAn-6X6YhLuU-21" value="&lt;pre style=&quot;background-color: #ffffff ; color: #080808 ; font-family: &amp;#34;jetbrains mono&amp;#34; , monospace ; font-size: 9 8pt&quot;&gt;&lt;pre style=&quot;font-family: &amp;#34;droid sans mono dotted&amp;#34; , monospace&quot;&gt;tell&lt;span style=&quot;color: #004b9f ; font-style: italic&quot;&gt;(&lt;/span&gt;&lt;span style=&quot;color: #00428c ; font-weight: bold&quot;&gt;new &lt;/span&gt;&lt;span style=&quot;color: #000000&quot;&gt;NodeMaestro&lt;/span&gt;.AdjustedWeightComplete&lt;span style=&quot;color: #004b9f ; font-style: italic&quot;&gt;(&lt;/span&gt;&lt;span style=&quot;color: #00428c ; font-weight: bold&quot;&gt;true&lt;/span&gt;&lt;span style=&quot;color: #004b9f ; font-style: italic&quot;&gt;))&lt;/span&gt;&lt;/pre&gt;&lt;/pre&gt;" style="text;html=1;strokeColor=none;fillColor=none;align=center;verticalAlign=middle;whiteSpace=wrap;rounded=0;" vertex="1" parent="1">
          <mxGeometry x="270" y="610" width="260" height="30" as="geometry" />
        </mxCell>
      </root>
    </mxGraphModel>
  </diagram>
</mxfile>
